<svg xmlns="http://www.w3.org/2000/svg" width="115.297" height="50.723" viewBox="0 0 115.297 50.723">
  <g id="Group_248031" data-name="Group 248031" transform="translate(0 0)">
    <path id="Vector" d="M1.022,9.607A13.062,13.062,0,0,1,2.054,7.531,14.968,14.968,0,0,1,6.668,2.752C10.952-.1,16.609-.993,21.211,1.313A13.474,13.474,0,0,1,26.638,5.96a5.078,5.078,0,0,1,.879,1.461C24.21,5.663,23.1,4.938,19.4,4.1c-.648-.154-1.263-.1-2.021-.22a11.361,11.361,0,0,0-4,.439,11.69,11.69,0,0,0-7.338,6.316A9.9,9.9,0,0,0,7.92,21.2a9.2,9.2,0,0,0,9.8,2.2,7.128,7.128,0,0,0,2.263-1.318,6.873,6.873,0,0,0,2.395-5.844c0-5.086-6.536-6.36-9.106-2.515a4.767,4.767,0,0,1,1.549-.384c3.372,0,4.339,4.075,2.362,6.129a3.713,3.713,0,0,1-2.548,1.131,4.931,4.931,0,0,1-4.2-1.714c-1.812-1.8-1.736-5.262-.681-7.426a6.152,6.152,0,0,1,.747-1.285,7.63,7.63,0,0,1,3.46-2.548,10.777,10.777,0,0,1,7.579.253,9.774,9.774,0,0,1,3.043,1.889l1.23,1.3c3.109,4.141,2.241,10.315-1.373,13.918a11.953,11.953,0,0,1-2.23,1.747,13.724,13.724,0,0,1-2.68,1.3c-7.689,2.614-16.2-.428-18.839-8.6A17.552,17.552,0,0,1,0,14.879,14.3,14.3,0,0,1,1.022,9.607Z" transform="translate(19.179 0)" fill="#005b4f" fill-rule="evenodd"/>
    <path id="Vector-2" data-name="Vector" d="M5.6,25.221a2.278,2.278,0,0,0,2.515.912c1.153-.22,4.526-1.373,4.592-2.878.044-1.164-.011-2.494-.011-3.68v-7.36c-.67-.165-2.823-2.01-5.339-1.087a4.468,4.468,0,0,0-2.351,2.01c-1.362,2.087-1.318,4.13-1.318,6.536A8.692,8.692,0,0,0,5.6,25.221ZM12.7,0H16.19V22.387a4.962,4.962,0,0,0,.637,2.559,6.092,6.092,0,0,0,.659.978c.593.769.593.275.736.813a4.75,4.75,0,0,0-1.109.736c-.373.275-.67.483-1.022.725a3.278,3.278,0,0,0-.8-.758A24.181,24.181,0,0,0,12.8,25.287l-1.142.989c-2.515,2.043-5.317,2.537-8.14.736a5.569,5.569,0,0,1-2.076-2.087,10.192,10.192,0,0,1-1.1-3.065c-.681-3.823-.417-6.668,1.549-9.9A7.314,7.314,0,0,1,3.81,9.908a8.2,8.2,0,0,1,1.274-.659,7.719,7.719,0,0,1,5.328.308c.461.209.747.341,1.186.549a6.021,6.021,0,0,0,1.1.549Z" transform="translate(39.612 22.525)" fill="#005b4f" fill-rule="evenodd"/>
    <path id="Vector-3" data-name="Vector" d="M0,0H3.3V11.82c.593-.4,1.3-1.076,1.988-1.494C7.3,9.128,9.59,8.26,11.951,9.568c2.252,1.241,2.483,3.636,2.483,6.426V27.616H10.952v-12.3c0-2.45-.813-3.779-3.394-3.779a5.039,5.039,0,0,0-2.483.8c-.362.22-1.681,1.131-1.681,1.527V27.616H0Z" transform="translate(61.899 22.525)" fill="#005b4f" fill-rule="evenodd"/>
    <path id="Vector-4" data-name="Vector" d="M12.27,5.221a5.2,5.2,0,0,0-4.427-3.23c-.67-.055-.549-.176-1.033.121A7.1,7.1,0,0,0,3.954,5.66c-.1.286-.209.6-.308.945s-.143.769-.253,1.011h9.392v-.3a6.917,6.917,0,0,0-.516-2.1Zm-11.633.8A8.766,8.766,0,0,1,11.688.476a5.681,5.681,0,0,1,1.725,1.087c.637.494.308.3.758.791A7.056,7.056,0,0,1,15.7,5.287a13.881,13.881,0,0,1,.439,2.856c.066.352.154.725-.253.725H3.3a10.179,10.179,0,0,0,.934,4.877,6.045,6.045,0,0,0,2.614,2.526c2.142,1.087,5.262.758,7.4-.022a3.048,3.048,0,0,1,.956-.308v1.45a2.574,2.574,0,0,0-.725.341,11.855,11.855,0,0,1-8.217,1.252,8.249,8.249,0,0,1-4.086-2.406A8.587,8.587,0,0,1,.33,13c-.077-.33-.1-.582-.165-.9L0,9.834A11.826,11.826,0,0,1,.637,6.023Z" transform="translate(99.104 31.386)" fill="#005b4f" fill-rule="evenodd"/>
    <path id="Vector-5" data-name="Vector" d="M12.314,5.525C11.2,2.438,7.645,1.691,6.843,2.108A7.838,7.838,0,0,0,3.394,7.678h9.392A11.069,11.069,0,0,0,12.314,5.525ZM1.823,16.312C-.033,14.027,0,11.643,0,9.128A9.864,9.864,0,0,1,.879,5.349a9.3,9.3,0,0,1,.846-1.472C3.5,1.186,7.744-.77,11.062.3c3.6,1.164,5.02,4.767,5.02,8.634H3.2c0,3.834,1.351,7.228,5.306,7.975a11.3,11.3,0,0,0,4.636-.264L15.115,16v1.45c-1.164.319-2.439,1.845-6.975,1.845a8.356,8.356,0,0,1-6.316-2.988Z" transform="translate(80.21 31.324)" fill="#005b4f" fill-rule="evenodd"/>
    <path id="Vector-6" data-name="Vector" d="M7.711,18.443,1.428,3.515c-.187-.428-.319-.725-.483-1.164A18.431,18.431,0,0,1,0,0H3.581c.066.264.22.626.33.923.132.341.231.582.362.9C4.745,3,8.843,13.786,9.205,14.049a11.294,11.294,0,0,1,.615-1.8c.242-.626.428-1.142.67-1.758L14.434,0h1.549L8.942,17.85c-.428,1.066-.242,1.044-.8,1.044-.275,0-.319-.209-.428-.45Z" transform="translate(0 31.829)" fill="#005b4f" fill-rule="evenodd"/>
    <path id="Vector-7" data-name="Vector" d="M3.581,3.79A9.478,9.478,0,0,1,9.59,0a17.941,17.941,0,0,0,.384,2.812,9.916,9.916,0,0,0-3.746,1.1,11.547,11.547,0,0,0-1.516.912c-.242.176-1.23.769-1.23,1.087V19.091H0V.78H2.417c.165.7.868,2.977.868,3.394Z" transform="translate(18.894 31.049)" fill="#005b4f" fill-rule="evenodd"/>
    <path id="Vector-8" data-name="Vector" d="M.286,0H3.2c.22,0,.286.066.286.286V18.311H0V.286C0,.066.066,0,.286,0Z" transform="translate(32.163 31.829)" fill="#005b4f" fill-rule="evenodd"/>
  </g>
</svg>
